<svg xmlns="http://www.w3.org/2000/svg" width="41.156" height="39.164" viewBox="0 0 41.156 39.164">
  <g id="icon-help" transform="translate(-819.372 -2554)">
    <path id="Trazado_8499" data-name="Trazado 8499" d="M202.789,137.681c3.366.475,5.689,3.342,8.2,5.63,2.217,2.018,4.847,3.913,5.5,6.84.628,2.829-.944,5.57-2.159,8.2a25.982,25.982,0,0,1-4.421,6.049c-2.272,2.608-3.661,7.224-7.12,7.2s-4.383-5.078-7.033-7.314c-2.349-1.982-6.608-2.016-7.507-4.955s2.724-5.335,3.443-8.33c.822-3.428-1.239-7.559,1.018-10.267,2.3-2.764,6.517-3.551,10.079-3.048" transform="translate(631.266 2416.461)" fill="#f1f1f1"/>
    <g id="Grupo_2889" data-name="Grupo 2889" transform="translate(821.363 2554)">
      <ellipse id="Elipse_188" data-name="Elipse 188" cx="3.003" cy="1.958" rx="3.003" ry="1.958" transform="translate(16.188 7.833)" fill="#ee5016"/>
      <rect id="Rectángulo_1637" data-name="Rectángulo 1637" width="3.133" height="4.177" transform="translate(21.409 26.892)" fill="#00a9b2"/>
      <g id="Grupo_2788" data-name="Grupo 2788" transform="translate(0 0)">
        <g id="Grupo_2620" data-name="Grupo 2620" transform="translate(0.392 0.653)">
          <path id="Trazado_7520" data-name="Trazado 7520" d="M-1355.113,3981.234c-.133,0-.264,0-.392-.006a19.179,19.179,0,0,1-3.2-.367,18.728,18.728,0,0,1-2.464-.671,14.7,14.7,0,0,1-1.981-.843l-10,1.25a.654.654,0,0,1-.55-.194.652.652,0,0,1-.176-.556l1.518-9.555a19.224,19.224,0,0,1-.747-1.884,20.623,20.623,0,0,1-1.049-4.994,18.9,18.9,0,0,1,.586-5.9,22.359,22.359,0,0,1,2.2-5.534,15.1,15.1,0,0,1,1.552-2.233,15.785,15.785,0,0,1,1.759-1.781,20.366,20.366,0,0,1,3.69-2.5,20.936,20.936,0,0,1,8.525-2.289c.377-.023.76-.035,1.137-.035a18.221,18.221,0,0,1,4.348.522,16.3,16.3,0,0,1,3.764,1.422,21.916,21.916,0,0,1,4.2,2.958,17.849,17.849,0,0,1,1.571,1.566,19.286,19.286,0,0,1,1.433,1.939,22.226,22.226,0,0,1,2.438,4.909,15.547,15.547,0,0,1,.745,4.219,22.387,22.387,0,0,1-.176,4.065,20.3,20.3,0,0,1-1.146,4.32,19.492,19.492,0,0,1-2.428,4.557,18.891,18.891,0,0,1-2.841,3.006,20.594,20.594,0,0,1-3.8,2.619,17.422,17.422,0,0,1-4.172,1.46A20.423,20.423,0,0,1-1355.113,3981.234Zm-7.908-3.214a.653.653,0,0,1,.331.09,12.36,12.36,0,0,0,1.989.86,17.858,17.858,0,0,0,5.236.953c.114,0,.233.005.352.005a18.915,18.915,0,0,0,7.9-1.834,19.548,19.548,0,0,0,6.2-5.243,19.538,19.538,0,0,0,3.332-8.28,17.814,17.814,0,0,0-.511-7.686,20.888,20.888,0,0,0-2.279-4.591,18.321,18.321,0,0,0-1.342-1.822l-.006-.007a16.8,16.8,0,0,0-1.469-1.459,20.587,20.587,0,0,0-3.926-2.761,16.223,16.223,0,0,0-7.5-1.792c-.351,0-.707.011-1.057.032a19.626,19.626,0,0,0-7.984,2.135,15.753,15.753,0,0,0-6.487,6.007,19.964,19.964,0,0,0-2.614,10.689,19.29,19.29,0,0,0,.975,4.646,16.662,16.662,0,0,0,.779,1.936.655.655,0,0,1,.062.4l-1.414,8.9,9.35-1.169A.7.7,0,0,1-1363.021,3978.02Z" transform="translate(1374.195 -3943.148)" fill="#434343"/>
          <g id="Grupo_2619" data-name="Grupo 2619" transform="translate(13.016 5.902)">
            <path id="Elipse_92" data-name="Elipse 92" d="M3.167,1.305A1.861,1.861,0,1,0,5.028,3.167,1.863,1.863,0,0,0,3.167,1.305M3.167,0A3.167,3.167,0,1,1,0,3.167,3.167,3.167,0,0,1,3.167,0Z" transform="translate(2.597 0)" fill="#434343"/>
            <path id="Trazado_7521" data-name="Trazado 7521" d="M-1305.727,4018.1h7.039a.653.653,0,0,1,.653.653v10.87h2.53a.653.653,0,0,1,.653.653v3.908a.653.653,0,0,1-.653.653h-10.222a.653.653,0,0,1-.653-.653v-3.908a.653.653,0,0,1,.653-.653h2.879v-7.154h-2.879a.653.653,0,0,1-.653-.653v-3.063A.653.653,0,0,1-1305.727,4018.1Zm6.386,1.305h-5.733v1.757h2.879a.653.653,0,0,1,.653.653v8.46a.653.653,0,0,1-.653.653h-2.879v2.6h8.916v-2.6h-2.53a.653.653,0,0,1-.653-.653Z" transform="translate(1306.38 -4009.614)" fill="#434343"/>
          </g>
        </g>
        <rect id="Rectángulo_1567" data-name="Rectángulo 1567" width="39.164" height="39.164" fill="none"/>
      </g>
    </g>
  </g>
</svg>
